<svg width="1280" height="434" viewBox="0 0 1280 434" fill="none" xmlns="http://www.w3.org/2000/svg">
<path d="M959.5 179.311C1067.5 256.84 1218.17 211.615 1280 179.311V0H0V119.384C2.33333 127.499 29.7 161.801 120.5 234.087C211.3 306.373 437 264.206 538.5 234.087C633.833 183.524 851.5 101.781 959.5 179.311Z" fill="#F8E279"/>
<path d="M121 230C121.221 230.066 121.452 230.14 121.694 230.221L206.986 257.329C214.608 259.751 212.941 268.752 205.031 267.571C198.425 266.585 191.873 265.34 185.864 263.78C184.025 263.303 181.915 263.423 180.776 264.943C175.378 272.148 183.469 290.488 178.5 332.5C174.64 365.137 171.01 367.832 162.75 369.352C160.417 369.782 158.019 368.957 156.393 367.23L152.497 363.09C151.522 362.055 150.886 360.747 150.673 359.341L148.5 345L145 318C142.333 298.333 143.2 255.2 140 246C136.941 237.206 126.938 231.975 121.694 230.221L121 230Z" fill="#F8E279" stroke="#F8E279" stroke-width="2"/>
<path d="M174 424C180.228 430.85 170.902 433.196 162.532 431.698C158.757 431.022 157.478 426.79 159.315 423.423L161.645 419.152C161.881 418.718 162.071 418.261 162.211 417.788L164.515 410.011C165.396 407.039 167.475 406.473 168.286 409.465C169.488 413.905 170.852 420.538 174 424Z" fill="#F8E279" stroke="#F8E279" stroke-width="2"/>
</svg>
