<svg width="1280" height="343" viewBox="0 0 1280 343" fill="none" xmlns="http://www.w3.org/2000/svg">
<path d="M336.9 94C233.942 150.358 127.005 104.643 56.7055 51.8172C35.3214 35.7485 0 50.1957 0 76.9442V313.692C0 329.828 13.1712 342.861 29.3062 342.691L1250.89 329.798C1266.6 329.632 1279.32 316.993 1279.5 301.284C1280.04 252.889 1280.42 175.667 1279.11 114.5C1277.79 52.8662 1229.33 58.4223 1089.5 19C1058.72 10.3228 1023.5 2.5 980.5 0C868.5 1.07892e-09 823.767 94 756.891 94C695.568 94 640.438 95.8218 613.198 77.1062C608.492 73.8729 603.569 70.877 598.077 69.3185C559.708 58.4328 463.643 24.6213 336.9 94Z" fill="#F8E279"/>
</svg>
