<svg width="44" height="44" viewBox="0 0 44 44" fill="none" xmlns="http://www.w3.org/2000/svg">
<path d="M10.0912 22.7884C10.0671 21.0266 10.5177 19.3299 11.3441 18.0715C12.1704 16.8132 13.3047 16.0962 14.4975 16.0784L19.7444 16L19.8052 20.4286L14.5582 20.5069C14.1607 20.5129 13.7825 20.7519 13.5071 21.1713C13.2317 21.5908 13.0814 22.1563 13.0895 22.7436C13.0976 23.3308 13.2632 23.8917 13.5501 24.3027C13.8369 24.7138 14.2214 24.9414 14.619 24.9355L19.8659 24.8571L19.9267 29.2856L14.6798 29.364C13.487 29.3818 12.3334 28.699 11.4729 27.4659C10.6124 26.2327 10.1154 24.5502 10.0912 22.7884Z" stroke="black" stroke-width="2" stroke-linecap="round" stroke-linejoin="round"/>
<path d="M23.8366 29.1354L22.1969 17.1354C22.1148 16.5349 22.5816 16 23.1877 16H24.9309C25.4579 16 25.8945 16.409 25.9288 16.9349L26.4284 24.5952C26.5064 25.792 28.2408 25.8624 28.4156 24.6759L29.5681 16.8542C29.6404 16.3635 30.0614 16 30.5574 16H31.816C32.449 16 32.9227 16.5807 32.7956 17.2008L30.336 29.2008C30.2406 29.666 29.8312 30 29.3564 30H24.8274C24.3275 30 23.9043 29.6307 23.8366 29.1354Z" stroke="black" stroke-width="1.5"/>
<circle cx="22" cy="22" r="21.25" stroke="black" stroke-width="1.5"/>
</svg>
