<svg width="44" height="44" viewBox="0 0 44 44" fill="none" xmlns="http://www.w3.org/2000/svg">
<g clip-path="url(#clip0_506_37)">
<path d="M19 28.9999C14 30.4999 14 26.4999 12 25.9999M26 31.9999V28.1299C26.0375 27.6531 25.9731 27.1737 25.811 26.7237C25.6489 26.2737 25.3929 25.8634 25.06 25.5199C28.2 25.1699 31.5 23.9799 31.5 18.5199C31.4997 17.1238 30.9627 15.7811 30 14.7699C30.4559 13.5484 30.4236 12.1983 29.91 10.9999C29.91 10.9999 28.73 10.6499 26 12.4799C23.708 11.8588 21.292 11.8588 19 12.4799C16.27 10.6499 15.09 10.9999 15.09 10.9999C14.5764 12.1983 14.5441 13.5484 15 14.7699C14.0301 15.7886 13.4925 17.1434 13.5 18.5499C13.5 23.9699 16.8 25.1599 19.94 25.5499C19.611 25.8899 19.3573 26.2953 19.1953 26.7399C19.0334 27.1844 18.9668 27.658 19 28.1299V31.9999" stroke="black" stroke-width="2" stroke-linecap="round" stroke-linejoin="round"/>
</g>
<circle cx="22" cy="22" r="21.25" stroke="black" stroke-width="1.5"/>
<defs>
<clipPath id="clip0_506_37">
<rect width="24" height="24" fill="white" transform="translate(10 10)"/>
</clipPath>
</defs>
</svg>
